<svg xmlns:dc="http://purl.org/dc/elements/1.1/" xmlns:cc="http://creativecommons.org/ns#" xmlns:rdf="http://www.w3.org/1999/02/22-rdf-syntax-ns#" xmlns:svg="http://www.w3.org/2000/svg" xmlns="http://www.w3.org/2000/svg" xmlns:sodipodi="http://sodipodi.sourceforge.net/DTD/sodipodi-0.dtd" xmlns:inkscape="http://www.inkscape.org/namespaces/inkscape" width="430px" viewBox="-5 0 610 400" id="svg2" version="1.1" inkscape:version="0.91pre3 r13670">
    <path style="fill:#000000;fill-opacity:1;stroke:#000000;stroke-width:8px;stroke-linecap:butt;stroke-linejoin:miter;stroke-opacity:1" d="m 175.2 78.2 q 21.3 0 36.4 15.1 15.1 15.1 15.1 36.4 0 21.3 -15.1 36.4 -15.1 15.1 -36.4 15.1 -21.3 0 -36.4 -15.1 -15.1 -15.1 -15.1 -36.4 0 -21.3 15.1 -36.4 15.1 -15.1 36.4 -15.1 z m 0 20.8 q -12.7 0 -21.7 9 -9 8.9 -9 21.6 0 12.7 9 21.7 9 9 21.7 9 12.7 0 21.6 -9 9 -9 9 -21.7 0 -12.7 -9 -21.6 -8.9 -9 -21.6 -9 z"/>
    <path style="fill:#000000;fill-opacity:1;stroke:#000000;stroke-width:8px;stroke-linecap:butt;stroke-linejoin:miter;stroke-opacity:1" d="m 298.8 181.1 q -21.8 -1.2 -35.8 -15.3 -14.9 -14.9 -15.1 -35.9 l 0 -39.8 q 0 -6 3.1 -9.1 3.1 -3.1 7.4 -3.1 4.3 0 7.4 3.1 3.1 3.1 3.1 8.9 l 0 39.8 q 0 0.9 -0.1 1.9 0.6 11.3 8.9 19.5 9 9 21.7 9 l 0.4 0 q 12.7 0 21.7 -9 8.3 -8.1 8.9 -19.5 -0.1 -0.9 -0.1 -1.9 l 0 -39.8 q 0 -5.8 3.1 -8.9 3.1 -3.1 7.4 -3.1 4.3 0 7.4 3.1 3.1 3.1 3.1 9.1 l 0 39.8 q -0.2 21 -15.1 35.9 -14 14 -35.8 15.3 l -1.7 0 z"/>
    <path style="fill:#000000;fill-opacity:1;stroke:#000000;stroke-width:8px;stroke-linecap:butt;stroke-linejoin:miter;stroke-opacity:1" d="m 423.1 99 q -12.7 0 -21.7 9 -9 8.9 -9 21.6 0 12.7 9 21.7 9 9 21.7 9 12.7 0 21.6 -9 9 -9 9 -21.7 0 -12.7 -9 -21.6 -8.9 -9 -21.6 -9 z m 30.5 72.2 q -13.2 9.9 -30.5 9.9 -21.3 0 -36.4 -15.1 -15.1 -15.1 -15.1 -36.4 0 -21.3 15.1 -36.4 15.1 -15.1 36.4 -15.1 21.3 0 36.4 15.1 15.1 15.1 15.1 36.3 l 0.1 0 0 41 q 0 0.8 -0.1 1.7 -0.5 20.5 -15.1 35.1 -15.1 15.1 -36.4 15.1 l -0.4 0 q -4.3 0 -7.4 -3.1 -3.1 -3.1 -3.1 -7.4 0 -4.3 3.1 -7.4 3.1 -3.1 7.4 -3.1 0.7 0 1.4 0.1 12 -0.4 20.6 -9 8.8 -8.9 8.9 -21.2 z"/>

    <path style="fill:#000000;fill-opacity:1;stroke:none;stroke-width:1px;stroke-linecap:butt;stroke-linejoin:miter;stroke-opacity:1" d="m 134.7 350.3 c -19.5 0 -35.5 -16 -35.5 -35.5 l 0 -42.5 c 0 -4 -3.1 -7.1 -7.1 -7.1 -4 0 -7.1 3.1 -7.1 7.1 l 0 42.5 c 0 19.5 -16 35.5 -35.5 35.5 -19.5 0 -35.5 -16 -35.5 -35.5 l 0 -56.7 c 0 -4 -3.1 -7.1 -7.1 -7.1 C 3.1 251 0 254.1 0 258.1 l 0 56.7 c 0 27.5 22.2 49.6 49.6 49.6 18 0 33.9 -9.5 42.5 -23.9 8.6 14.4 24.4 23.9 42.5 23.9 27.5 0 49.6 -22.2 49.6 -49.6 l 0 -56.7 c 0 -4 -3.1 -7.1 -7.1 -7.1 -4 0 -7.1 3.1 -7.1 7.1 l 0 56.7 c 0 19.5 -16 35.5 -35.5 35.5 z"/>
    <path style="fill:#000000;fill-opacity:1;stroke:none;stroke-width:1px;stroke-linecap:butt;stroke-linejoin:miter;stroke-opacity:1" d="m 199.9 307.8 c 0 31.2 25.5 56.7 56.7 56.7 16.8 0 32.1 -7.3 42.5 -19.3 l 0 12.2 c 0 4 3.1 7.1 7.1 7.1 4 0 7.1 -3.1 7.1 -7.1 l 0 -49.6 c 0 -31.2 -25.5 -56.7 -56.7 -56.7 -31.2 0 -56.7 25.5 -56.7 56.7 z m 14.2 0 c 0 -23.5 19.1 -42.5 42.5 -42.5 23.5 0 42.5 19.1 42.5 42.5 0 23.5 -19.1 42.5 -42.5 42.5 -23.5 0 -42.5 -19.1 -42.5 -42.5 z"/>
    <path style="fill:#000000;fill-opacity:1;stroke:none;stroke-width:1px;stroke-linecap:butt;stroke-linejoin:miter;stroke-opacity:1" d="m 334.2 357.4 c 0 4 3.1 7.1 7.1 7.1 4 0 7.1 -3.1 7.1 -7.1 l 0 -141.8 c 0 -4 -3.1 -7.1 -7.1 -7.1 -4 0 -7.1 3.1 -7.1 7.1 l 0 141.8 z"/>
    <path style="fill:#000000;fill-opacity:1;stroke:none;stroke-width:1px;stroke-linecap:butt;stroke-linejoin:miter;stroke-opacity:1" d="m 373.2 357.4 c 0 4 3.1 7.1 7.1 7.1 4 0 7.1 -3.1 7.1 -7.1 l 0 -141.8 c 0 -4 -3.1 -7.1 -7.1 -7.1 -4 0 -7.1 3.1 -7.1 7.1 l 0 141.8 z"/>
    <path style="fill:#000000;fill-opacity:1;stroke:none;stroke-width:1px;stroke-linecap:butt;stroke-linejoin:miter;stroke-opacity:1" d="m 477.7 364.5 c 4 0 7.1 -3.1 7.1 -7.1 0 -4 -3.1 -7.1 -7.1 -7.1 l -14.2 0 c -21.1 0 -38.6 -15.3 -42.1 -35.5 l 91.7 0 c 4 0 7.1 -3.1 7.1 -7.1 0 -31.2 -25.5 -56.7 -56.7 -56.7 -31.2 0 -56.7 25.5 -56.7 56.7 0 31.2 25.5 56.7 56.7 56.7 l 14.2 0 z m -14.2 -99.3 c 21.1 0 38.6 15.5 41.9 35.5 l -84 0 c 3.5 -19.9 21.1 -35.5 42.1 -35.5 z"/>
    <path style="fill:#000000;fill-opacity:1;stroke:none;stroke-width:1px;stroke-linecap:butt;stroke-linejoin:miter;stroke-opacity:1" d="m 592.6 364.5 c 4 0 7.1 -3.1 7.1 -7.1 0 -4 -3.1 -7.1 -7.1 -7.1 l -14.2 0 c -15.7 0 -28.4 -12.6 -28.4 -28.4 l 0 -56.7 42.5 0 c 4 0 7.1 -3.1 7.1 -7.1 0 -4 -3.1 -7.1 -7.1 -7.1 l -42.5 0 0 -21.3 c 0 -4 -3.1 -7.1 -7.1 -7.1 -4 0 -7.1 3.1 -7.1 7.1 l 0 92.2 c 0 23.5 19.1 42.5 42.5 42.5 l 14.2 0 z"/>

    <g style="fill:#000000;fill-opacity:1;stroke:none;stroke-width:1px;stroke-linecap:butt;stroke-linejoin:miter;stroke-opacity:1"/>
    <g transform="matrix(0,-1,1,0,0,0)" style="fill:#000000;fill-opacity:1;stroke:#000000;stroke-width:8px;stroke-linecap:butt;stroke-linejoin:miter;stroke-opacity:1">
      <path d="m -81.7 506.4 q 0 -4.3 3.1 -7.4 3.1 -3.1 7.4 -3.1 l 41.2 0 q 4.3 0 7.4 3.1 3.1 3.1 3.1 7.4 0 4.3 -3.1 7.4 -3.1 3.1 -7.4 3.1 l -41.2 0 q -4.3 0 -7.4 -3.1 -3.1 -3.1 -3.1 -7.4 z m 23.5 -10.5 q 4.3 0 7.4 3.1 3.1 3.1 3.1 7.4 0 4.3 -3.1 7.4 -3.1 3.1 -7.4 3.1 l -29.9 0 q 9.1 12.5 10.1 29.8 l 0 1.7 q -1.2 21.8 -15.3 35.8 -14.9 14.9 -35.9 15.1 l -41.9 0 q -5 0 -7.5 -3.1 -2.6 -3.1 -2.6 -7.4 0 -4.3 2.6 -7.4 2.6 -3.1 7.3 -3.1 l 41.9 0 q 0.9 0 1.9 0.1 11.3 -0.6 19.5 -8.9 9 -9 9 -21.7 l 0 -0.4 q 0 -12.7 -9 -21.7 -7.6 -7.7 -18.2 -8.8 l -45.1 0 q -4.7 0 -7.3 -3.1 -2.6 -3.1 -2.6 -7.4 0 -4.3 2.6 -7.4 2.6 -3.1 7.5 -3.1 l 112.8 0 z"/>
    </g>
    <g transform="matrix(0,-1,1,0,0,0)" style="fill:#000000;fill-opacity:1;stroke:#000000;stroke-width:8px;stroke-linecap:butt;stroke-linejoin:miter;stroke-opacity:1">
      <path d="m -81.7 92.1 q 0 -4.3 3.1 -7.4 3.1 -3.1 7.4 -3.1 l 41.2 0 q 4.3 0 7.4 3.1 3.1 3.1 3.1 7.4 0 4.3 -3.1 7.4 -3.1 3.1 -7.4 3.1 l -41.2 0 q -4.3 0 -7.4 -3.1 -3.1 -3.1 -3.1 -7.4 z M -131.8 82 q 0.9 -0.1 1.9 -0.1 l 3.9 0 q 10.3 -1.1 17.9 -8.8 9 -9 9 -21.7 0 -12.7 -9 -21.7 -9 -8.9 -21.7 -8.9 -12.7 0 -21.7 8.9 -8.9 9 -8.9 21.7 0 12.7 9 21.7 8.1 8.3 19.5 8.9 z m 1.7 20.9 q -21 -0.2 -35.9 -15.1 -15.1 -15.1 -15.1 -36.4 0 -21.3 15.1 -36.4 Q -151 0 -129.6 0 q 21.3 0 36.4 15.1 15.1 15.1 15.1 36.4 0 17.2 -9.9 30.4 l 30.3 0 q 4.3 0 7.4 3.1 3.1 3.1 3.1 7.4 0 4.3 -3.1 7.4 -3.1 3.1 -7.4 3.1 l -72.4 0 z m 77.4 -41.2 q 4.3 0 7.4 3.1 3.1 3.1 3.1 7.4 l 0 41 q 0 4.3 -3.1 7.4 -3.1 3.1 -7.4 3.1 -4.3 0 -7.4 -3.1 -3.1 -3.1 -3.1 -7.4 l 0 -41 q 0 -4.3 3.1 -7.4 3.1 -3.1 7.4 -3.1 z"/>
    </g>

</svg>
